<svg viewBox="-4 -4 60 60" class=""><path class="sr-fill" fill="#EFC319" d="M26.921,43.078L12.919,53.086c-1.449,1.035-3.381-0.369-2.844-2.066l5.191-16.41c0.239-0.756-0.028-1.578-0.666-2.049L0.755,22.336c-1.432-1.058-0.694-3.328,1.086-3.343l17.212-0.133c0.792-0.006,1.492-0.515,1.743-1.266l5.445-16.329c0.563-1.688,2.95-1.688,3.514,0l5.446,16.329c0.251,0.751,0.95,1.26,1.742,1.266l17.212,0.133c1.78,0.015,2.518,2.285,1.087,3.343L41.396,32.561c-0.638,0.471-0.904,1.293-0.666,2.049l5.191,16.41c0.538,1.697-1.396,3.102-2.843,2.066L29.076,43.078C28.431,42.617,27.566,42.617,26.921,43.078"></path></svg>